<svg xmlns="http://www.w3.org/2000/svg" fill="none" viewBox="0 0 84 84"><g clip-path="url(#a)"><path fill="#A78BFA" d="M-21 28C-21 12.536-8.46397 0 7 0v28h-28Zm28 0h28C35 12.536 22.464 0 7 0v28Z" opacity=".2"/><path fill="#A3E635" d="M35 0c0 15.464 12.536 28 28 28V0H35Zm28 0c0 15.464 12.536 28 28 28V0H63Z" opacity=".2"/><path fill="#A78BFA" d="M-21 28c0 15.464 12.53603 28 28 28V28h-28Zm56 28H7V28h28v28Z" opacity=".2"/><path fill="#A3E635" d="M35 56c0-15.464 12.536-28 28-28v28H35Zm28 0c0-15.464 12.536-28 28-28v28H63Z" opacity=".2"/><path fill="#A78BFA" d="M-21 84c0-15.464 12.53603-28 28-28v28h-28Zm28 0h28c0-15.464-12.536-28-28-28v28Z" opacity=".2"/><path fill="#A3E635" d="M35 56c0 15.464 12.536 28 28 28V56H35Zm28 0c0 15.464 12.536 28 28 28V56H63Z" opacity=".2"/><path fill="#A78BFA" d="M21 28c7.732 0 14 6.268 14 14v14H21c-7.732 0-14-6.268-14-14s6.268-14 14-14Z"/><path fill="#A3E635" d="M49 56c-7.732 0-14-6.268-14-14s6.268-14 14-14v28Zm14-14c0-7.732 6.268-14 14-14v14c0 7.6112-6.0738 13.8039-13.6388 13.9954L63 56c-7.732 0-14-6.268-14-14s6.268-14 14-14v14Z"/></g><defs><clipPath id="a"><path fill="#fff" d="M0 0h84v84H0z"/></clipPath></defs></svg>