<svg xmlns="http://www.w3.org/2000/svg" fill="none" viewBox="0 0 24 24"><g clip-path="url(#a)"><path fill="#072465" d="M12 23.9995c6.6166 0 12-5.3834 12-12C24 5.38287 18.6166-.00050659 12-.00050659 5.38338-.00050659 0 5.38287 0 11.9995c0 6.6166 5.38338 12 12 12Z"/><path fill="#FCAF17" d="M15.0429 15.7285c-3.5019 0-6.35356-2.8495-6.35356-6.35148 0-1.36794.43564-2.63486 1.17222-3.67239-2.62013.89231-4.51 3.37776-4.51 6.29467 0 3.666 2.98212 6.6482 6.64824 6.6482 2.5696 0 4.8025-1.4648 5.9074-3.603-.8608.4378-1.8331.684-2.8643.684Zm2.895-7.42754c-.8418.5619-1.9656 1.68572-2.5276 2.52754-.5619-.84182-1.6857-1.96564-2.5275-2.52754.8418-.56191 1.9656-1.68573 2.5275-2.52754.562.84181 1.6858 1.96563 2.5276 2.52754Z"/></g><defs><clipPath id="a"><path fill="#fff" d="M0 0h24v24H0z"/></clipPath></defs></svg>