<svg width="72" height="72" viewBox="0 0 72 72" fill="none" xmlns="http://www.w3.org/2000/svg">
<circle cx="36" cy="36" r="36" fill="#EDE9FE"/>
<path d="M25.68 43.456H32.976V48H19.6L25.68 43.456ZM7.6 36.256C7.6 34.6347 7.90933 33.0987 8.528 31.648C9.14667 30.1973 10 28.9173 11.088 27.808C12.1973 26.6773 13.4773 25.792 14.928 25.152C16.3787 24.512 17.936 24.192 19.6 24.192C21.2427 24.192 22.7893 24.512 24.24 25.152C25.6907 25.792 26.9707 26.6773 28.08 27.808C29.2107 28.9173 30.0853 30.1973 30.704 31.648C31.344 33.0987 31.664 34.6347 31.664 36.256C31.664 37.92 31.344 39.4773 30.704 40.928C30.0853 42.3787 29.2107 43.6587 28.08 44.768C26.9707 45.856 25.6907 46.7093 24.24 47.328C22.7893 47.9467 21.2427 48.256 19.6 48.256C17.936 48.256 16.3787 47.9467 14.928 47.328C13.4773 46.7093 12.1973 45.856 11.088 44.768C10 43.6587 9.14667 42.3787 8.528 40.928C7.90933 39.4773 7.6 37.92 7.6 36.256ZM12.4 36.256C12.4 37.28 12.5813 38.2507 12.944 39.168C13.328 40.064 13.8507 40.864 14.512 41.568C15.1947 42.2507 15.9733 42.784 16.848 43.168C17.744 43.552 18.7147 43.744 19.76 43.744C20.7627 43.744 21.6907 43.552 22.544 43.168C23.4187 42.784 24.176 42.2507 24.816 41.568C25.456 40.8853 25.9573 40.096 26.32 39.2C26.6827 38.2827 26.864 37.3013 26.864 36.256C26.864 35.232 26.672 34.272 26.288 33.376C25.9253 32.4587 25.4133 31.6587 24.752 30.976C24.112 30.2933 23.3547 29.76 22.48 29.376C21.6053 28.992 20.656 28.8 19.632 28.8C18.608 28.8 17.6587 28.992 16.784 29.376C15.9093 29.76 15.1413 30.2933 14.48 30.976C13.8187 31.6587 13.3067 32.4587 12.944 33.376C12.5813 34.272 12.4 35.232 12.4 36.256ZM33.3365 24.608H38.7765L43.8005 39.392L43.0645 39.072L47.4485 28.16L49.5925 34.528L42.8085 49.088L33.3365 24.608ZM45.1445 24.608H49.7525L55.5445 38.912L54.7125 38.784L59.0325 24.608H64.0245L54.9365 49.024L45.1445 24.608Z" fill="#2E1065"/>
</svg>
