<svg width="72" height="72" viewBox="0 0 72 72" fill="none" xmlns="http://www.w3.org/2000/svg">
<circle cx="36" cy="36" r="36" fill="#EDE9FE"/>
<path d="M25.68 42.456H32.976V47H19.6L25.68 42.456ZM7.6 35.256C7.6 33.6347 7.90933 32.0987 8.528 30.648C9.14667 29.1973 10 27.9173 11.088 26.808C12.1973 25.6773 13.4773 24.792 14.928 24.152C16.3787 23.512 17.936 23.192 19.6 23.192C21.2427 23.192 22.7893 23.512 24.24 24.152C25.6907 24.792 26.9707 25.6773 28.08 26.808C29.2107 27.9173 30.0853 29.1973 30.704 30.648C31.344 32.0987 31.664 33.6347 31.664 35.256C31.664 36.92 31.344 38.4773 30.704 39.928C30.0853 41.3787 29.2107 42.6587 28.08 43.768C26.9707 44.856 25.6907 45.7093 24.24 46.328C22.7893 46.9467 21.2427 47.256 19.6 47.256C17.936 47.256 16.3787 46.9467 14.928 46.328C13.4773 45.7093 12.1973 44.856 11.088 43.768C10 42.6587 9.14667 41.3787 8.528 39.928C7.90933 38.4773 7.6 36.92 7.6 35.256ZM12.4 35.256C12.4 36.28 12.5813 37.2507 12.944 38.168C13.328 39.064 13.8507 39.864 14.512 40.568C15.1947 41.2507 15.9733 41.784 16.848 42.168C17.744 42.552 18.7147 42.744 19.76 42.744C20.7627 42.744 21.6907 42.552 22.544 42.168C23.4187 41.784 24.176 41.2507 24.816 40.568C25.456 39.8853 25.9573 39.096 26.32 38.2C26.6827 37.2827 26.864 36.3013 26.864 35.256C26.864 34.232 26.672 33.272 26.288 32.376C25.9253 31.4587 25.4133 30.6587 24.752 29.976C24.112 29.2933 23.3547 28.76 22.48 28.376C21.6053 27.992 20.656 27.8 19.632 27.8C18.608 27.8 17.6587 27.992 16.784 28.376C15.9093 28.76 15.1413 29.2933 14.48 29.976C13.8187 30.6587 13.3067 31.4587 12.944 32.376C12.5813 33.272 12.4 34.232 12.4 35.256ZM33.3365 23.608H38.7765L43.8005 38.392L43.0645 38.072L47.4485 27.16L49.5925 33.528L42.8085 48.088L33.3365 23.608ZM45.1445 23.608H49.7525L55.5445 37.912L54.7125 37.784L59.0325 23.608H64.0245L54.9365 48.024L45.1445 23.608Z" fill="#2E1065"/>
</svg>
