<svg width="64" height="64" viewBox="0 0 64 64" fill="none" xmlns="http://www.w3.org/2000/svg">
<path d="M12.8 19C19.8692 19 25.6 24.8203 25.6 32V45H12.8C5.73076 45 0 39.1797 0 32C0 24.8203 5.73076 19 12.8 19Z" fill="#A78BFA"/>
<path d="M38.4 45V45C31.3308 45 25.6 39.2692 25.6 32.2V32C25.6 24.8203 31.3308 19 38.4 19V45Z" fill="#A3E635"/>
<path d="M51.2 32C51.2 24.8203 56.9308 19 64 19V32C64 39.0676 58.4469 44.8179 51.5302 44.9958L51.2 45C44.1308 45 38.4 39.1797 38.4 32C38.4 24.8203 44.1308 19 51.2 19V32Z" fill="#A3E635"/>
</svg>
