<svg xmlns="http://www.w3.org/2000/svg" fill="none" viewBox="0 0 128 122">
  <path fill="#4C1D95" d="m64 2 64 38a6.54 6.54 0 0 0-2.49 3.95l-.01.05h-1.32A124 124 0 0 0 102 46c-25.3-2-50.7-2-76 0l-4.6-.66C15.14 44.44 8.83 44 2.5 44l-.01-.05A6.54 6.54 0 0 0 0 40L64 2Z"/>
  <path fill="#4C1D95" d="M64 2 39 18 26 46l-4.6-.66C15.14 44.44 8.83 44 2.5 44l-.01-.05A6.54 6.54 0 0 0 0 40L64 2Z"/>
  <path fill="#0F0" fill-opacity=".2" d="M64 2 39 18 26 46l-4.6-.66C15.14 44.44 8.83 44 2.5 44l-.01-.05A6.54 6.54 0 0 0 0 40L64 2Z"/>
  <path fill="#5B21B6" d="m64 2 25 16 13 28 4.6-.66A133.7 133.7 0 0 1 125.5 44l.01-.05A6.54 6.54 0 0 1 128 40L64 2Z"/>
  <path fill="#A78BFA" fill-opacity=".2" d="m64 2 25 16 13 28 4.6-.66A133.7 133.7 0 0 1 125.5 44l.01-.05A6.54 6.54 0 0 1 128 40L64 2Z"/>
  <path fill="#4B5563" d="M54 102v-2h-4v2h4Zm-2 0h-2v12h4v-12h-2Zm12 12h2V0h-4v114h2Zm-6 6v2a8 8 0 0 0 8-8h-4a4 4 0 0 1-4 4v2Zm-6-6h-2a8 8 0 0 0 8 8v-4a4 4 0 0 1-4-4h-2Z"/>
  <path fill="#101828" d="M62 3h4v36h-4z"/>
  <path fill="#C4B5FD" d="m33 7 31-5 31 5 17 9a60.58 60.58 0 0 1 10.12 13.42L128 40a62.54 62.54 0 0 0-32.83-3.03L95 37a111.19 111.19 0 0 0-62 0l-.17-.03A62.54 62.54 0 0 0 0 40l5.88-10.58A60.58 60.58 0 0 1 16 16l17-9Z"/>
  <path fill="#A78BFA" d="m33 7 31-5-19 14-12 21-.17-.03A62.54 62.54 0 0 0 0 40l5.88-10.58A60.58 60.58 0 0 1 16 16l17-9Z"/>
  <path fill="#DDD6FE" d="M95 7 64 2l19 14 12 21 .17-.03A62.54 62.54 0 0 1 128 40l-5.88-10.58A60.58 60.58 0 0 0 112 16L95 7Z"/>
</svg>