<svg width="144" height="143" fill="none" xmlns="http://www.w3.org/2000/svg"><mask id="a" style="mask-type:alpha" maskUnits="userSpaceOnUse" x="0" y="0" width="144" height="143"><path fill-rule="evenodd" clip-rule="evenodd" d="m8 4 4 2-4 2-2 4-2-4-4-2 4-2 2-4 2 4ZM32 4l4 2-4 2-2 4-2-4-4-2 4-2 2-4 2 4ZM56 4l4 2-4 2-2 4-2-4-4-2 4-2 2-4 2 4ZM8 28l4 2-4 2-2 4-2-4-4-2 4-2 2-4 2 4ZM32 28l4 2-4 2-2 4-2-4-4-2 4-2 2-4 2 4ZM56 28l4 2-4 2-2 4-2-4-4-2 4-2 2-4 2 4ZM80 4l4 2-4 2-2 4-2-4-4-2 4-2 2-4 2 4ZM80 52l4 2-4 2-2 4-2-4-4-2 4-2 2-4 2 4ZM8 52l4 2-4 2-2 4-2-4-4-2 4-2 2-4 2 4ZM104 4l4 2-4 2-2 4-2-4-4-2 4-2 2-4 2 4ZM104 52l4 2-4 2-2 4-2-4-4-2 4-2 2-4 2 4ZM32 52l4 2-4 2-2 4-2-4-4-2 4-2 2-4 2 4ZM128 4l4 2-4 2-2 4-2-4-4-2 4-2 2-4 2 4ZM128 52l4 2-4 2-2 4-2-4-4-2 4-2 2-4 2 4ZM56 52l4 2-4 2-2 4-2-4-4-2 4-2 2-4 2 4ZM80 28l4 2-4 2-2 4-2-4-4-2 4-2 2-4 2 4ZM80 76l4 2-4 2-2 4-2-4-4-2 4-2 2-4 2 4ZM80 99l4 2-4 2-2 4-2-4-4-2 4-2 2-4 2 4ZM80 123l4 2-4 2-2 4-2-4-4-2 4-2 2-4 2 4ZM8 76l4 2-4 2-2 4-2-4-4-2 4-2 2-4 2 4ZM8 99l4 2-4 2-2 4-2-4-4-2 4-2 2-4 2 4ZM8 123l4 2-4 2-2 4-2-4-4-2 4-2 2-4 2 4ZM104 28l4 2-4 2-2 4-2-4-4-2 4-2 2-4 2 4ZM104 76l4 2-4 2-2 4-2-4-4-2 4-2 2-4 2 4ZM104 99l4 2-4 2-2 4-2-4-4-2 4-2 2-4 2 4ZM104 123l4 2-4 2-2 4-2-4-4-2 4-2 2-4 2 4ZM32 76l4 2-4 2-2 4-2-4-4-2 4-2 2-4 2 4ZM32 99l4 2-4 2-2 4-2-4-4-2 4-2 2-4 2 4ZM32 123l4 2-4 2-2 4-2-4-4-2 4-2 2-4 2 4ZM128 28l4 2-4 2-2 4-2-4-4-2 4-2 2-4 2 4ZM128 76l4 2-4 2-2 4-2-4-4-2 4-2 2-4 2 4ZM128 99l4 2-4 2-2 4-2-4-4-2 4-2 2-4 2 4ZM128 123l4 2-4 2-2 4-2-4-4-2 4-2 2-4 2 4ZM56 76l4 2-4 2-2 4-2-4-4-2 4-2 2-4 2 4ZM56 99l4 2-4 2-2 4-2-4-4-2 4-2 2-4 2 4ZM56 123l4 2-4 2-2 4-2-4-4-2 4-2 2-4 2 4Z" fill="#C4B5FD"/></mask><g mask="url(#a)"><path transform="rotate(45 75.0031 -74.2632)" fill="url(#b)" d="M75.0031-74.2632h210.618v199.408H75.0031z"/></g><defs><linearGradient id="b" x1="75.0031" y1="25.4411" x2="285.621" y2="25.4411" gradientUnits="userSpaceOnUse"><stop stop-color="#C4B5FD"/><stop offset="1" stop-color="#fff" stop-opacity="0"/></linearGradient></defs></svg>